<svg width="24" height="24" viewBox="0 0 24 24" fill="none" xmlns="http://www.w3.org/2000/svg">
<path d="M21.873 8.80814C22.498 5.86114 20.801 2.75514 17.084 2.75514H11.288L10.328 7.25514H14.7C15.597 7.25514 16.157 7.99114 15.964 8.87214C15.772 9.76914 14.908 10.4581 14.011 10.4581H9.592L15.517 21.4101H21.715L17.71 14.0601C18.783 13.4841 21.218 11.8671 21.874 8.80814H21.873ZM3.025 16.5901L2 21.4281H7.285L9.591 10.4741C6.372 10.5861 3.841 12.7321 3.024 16.5901H3.025ZM6.5 7.54314C6.8271 7.54445 7.15125 7.48123 7.45388 7.35708C7.75651 7.23294 8.03168 7.05032 8.26363 6.81967C8.49557 6.58902 8.67974 6.31489 8.80559 6.01296C8.93143 5.71103 8.99648 5.38724 8.997 5.06014C8.99488 4.39992 8.73065 3.76757 8.2624 3.30214C7.79415 2.8367 7.16022 2.57628 6.5 2.57814C6.17292 2.57709 5.84885 2.64048 5.54628 2.76471C5.24371 2.88893 4.96858 3.07155 4.7366 3.30213C4.50463 3.53272 4.32036 3.80674 4.19431 4.10856C4.06827 4.41037 4.00292 4.73406 4.002 5.06114C4.00675 5.72071 4.27196 6.35168 4.73986 6.81658C5.20775 7.28147 5.84041 7.54263 6.5 7.54314Z" fill="white"/>
</svg>
