0
SECTION
2
HEADER
9
$INSUNITS
70
4
9
$ACADVER
1
AC1014
9
$HANDSEED
5
FFFF
0
ENDSEC
0
SECTION
2
TABLES
0
TABLE
2
VPORT
5
8
100
AcDbSymbolTable
0
ENDTAB
0
TABLE
2
LTYPE
5
5
100
AcDbSymbolTable
0
LTYPE
5
14
100
AcDbSymbolTableRecord
100
AcDbLinetypeTableRecord
2
BYBLOCK
70
0
0
LTYPE
5
15
100
AcDbSymbolTableRecord
100
AcDbLinetypeTableRecord
2
BYLAYER
70
0
0
LTYPE
5
16
100
AcDbSymbolTableRecord
100
AcDbLinetypeTableRecord
2
DASHED
70
0
3
Dashed __ __ __ __ __ __ __ __ __ __ __ __ __ _
72
65
73
2
40
0.75
49
0.5
74
0
49
-0.25
74
0
0
ENDTAB
0
TABLE
2
LAYER
5
2
100
AcDbSymbolTable
70
2
0
LAYER
5
50
100
AcDbSymbolTableRecord
100
AcDbLayerTableRecord
2
0
70
0
62
7
6
CONTINUOUS
0
ENDTAB
0
TABLE
2
STYLE
5
3
100
AcDbSymbolTable
70
1
0
STYLE
5
11
100
AcDbSymbolTableRecord
100
AcDbTextStyleTableRecord
2
STANDARD
70
0
0
ENDTAB
0
TABLE
2
VIEW
5
6
100
AcDbSymbolTable
70
0
0
ENDTAB
0
TABLE
2
UCS
5
7
100
AcDbSymbolTable
70
0
0
ENDTAB
0
TABLE
2
APPID
5
9
100
AcDbSymbolTable
70
2
0
APPID
5
12
100
AcDbSymbolTableRecord
100
AcDbRegAppTableRecord
2
ACAD
70
0
0
ENDTAB
0
TABLE
2
DIMSTYLE
5
A
100
AcDbSymbolTable
70
1
0
ENDTAB
0
TABLE
2
BLOCK_RECORD
5
1
100
AcDbSymbolTable
70
1
0
BLOCK_RECORD
5
1F
100
AcDbSymbolTableRecord
100
AcDbBlockTableRecord
2
*MODEL_SPACE
0
BLOCK_RECORD
5
1B
100
AcDbSymbolTableRecord
100
AcDbBlockTableRecord
2
*PAPER_SPACE
0
ENDTAB
0
ENDSEC
0
SECTION
2
BLOCKS
0
BLOCK
5
20
100
AcDbEntity
100
AcDbBlockBegin
2
*MODEL_SPACE
0
ENDBLK
5
21
100
AcDbEntity
100
AcDbBlockEnd
0
BLOCK
5
1C
100
AcDbEntity
100
AcDbBlockBegin
2
*PAPER_SPACE
0
ENDBLK
5
1D
100
AcDbEntity
100
AcDbBlockEnd
0
ENDSEC
0
SECTION
2
ENTITIES
0
LWPOLYLINE
5
100
100
AcDbEntity
8
0
100
AcDbPolyline
90
32
70
1
43
0.0
10
-102.30000050000024
20
-84.550000000000352
10
-102.30000000000001
20
-62.549999999999997
42
0.41421329289403885
10
-103.30000099999999
20
-61.54999999999901
10
-106.88580100000001
20
-61.550000000000004
42
0.19890168965996799
10
-107.59289300000154
20
-61.842892999998476
10
-111.71421399999907
20
-65.964214000000936
42
-0.19891252945908294
10
-113.12840100000001
20
-66.549999999999216
10
-159.471574
20
-66.549999999996913
42
-0.19890307284518455
10
-160.88579999999428
20
-65.964199999994307
10
-165.00710000000001
20
-61.842900000000007
42
0.19890355303968366
10
-165.71421100000003
20
-61.549999999993297
10
-169.30000100000001
20
-61.550000000000004
42
0.41421270710547614
10
-170.29999999999353
20
-62.549999999999997
10
-170.30000000000001
20
-84.549999999999997
42
0.4142133535519828
10
-168.30000100000004
20
-86.54999999999464
10
-167.30000099999998
20
-86.549999999995165
42
-0.41421364644809788
10
-165.29999999999504
20
-88.550000000000011
10
-165.29999999999507
20
-99.549999999999997
42
-0.41421364644662029
10
-167.30000100000001
20
-101.54999999999487
10
-168.30000100000004
20
-101.55000000000001
42
0.41421335356076783
10
-170.29999999999501
20
-103.55000000000001
10
-170.30000000000001
20
-119.55
42
0.41421335354612704
10
-168.30000100000004
20
-121.54999999995466
10
-104.30000100000001
20
-121.55000000000001
42
0.41421399999248482
10
-102.30000100000055
20
-119.55000000000061
10
-102.30000000000001
20
-103.55000000000001
42
0.41421364645540787
10
-104.30000100000001
20
-101.54999999994516
10
-105.30000100000001
20
-101.54999999999463
42
-0.41421335355198019
10
-107.29999999999499
20
-99.549999999999997
10
-107.3000009999941
20
-88.549999999999017
42
-0.41421299999958405
10
-105.30000100000001
20
-86.549999999995919
10
-104.30000100000001
20
-86.549999999999997
42
0.41421399999978692
0
CIRCLE
5
101
100
AcDbEntity
8
0
100
AcDbCircle
10
-105.34999999999999
20
-118.35000000000001
30
0
40
1
210
0
220
0
230
1
0
CIRCLE
5
102
100
AcDbEntity
8
0
100
AcDbCircle
10
-114.98000000000002
20
-118.40000000000002
30
0
40
0.67000000000000004
210
0
220
0
230
1
0
CIRCLE
5
103
100
AcDbEntity
8
0
100
AcDbCircle
10
-114.98000000000002
20
-113.67000000000002
30
0
40
0.67000000000000004
210
0
220
0
230
1
0
CIRCLE
5
104
100
AcDbEntity
8
0
100
AcDbCircle
10
-116.85000000000001
20
-113.23
30
0
40
0.20000000000000004
210
0
220
0
230
1
0
CIRCLE
5
105
100
AcDbEntity
8
0
100
AcDbCircle
10
-117.65000000000001
20
-113.23
30
0
40
0.20000000000000004
210
0
220
0
230
1
0
CIRCLE
5
106
100
AcDbEntity
8
0
100
AcDbCircle
10
-118.45
20
-113.23
30
0
40
0.20000000000000004
210
0
220
0
230
1
0
CIRCLE
5
107
100
AcDbEntity
8
0
100
AcDbCircle
10
-120.05000000000001
20
-113.23
30
0
40
0.20000000000000004
210
0
220
0
230
1
0
CIRCLE
5
108
100
AcDbEntity
8
0
100
AcDbCircle
10
-116.45000000000002
20
-112.52000000000001
30
0
40
0.20000000000000004
210
0
220
0
230
1
0
CIRCLE
5
109
100
AcDbEntity
8
0
100
AcDbCircle
10
-117.25000000000001
20
-112.52000000000001
30
0
40
0.22499999999999998
210
0
220
0
230
1
0
CIRCLE
5
110
100
AcDbEntity
8
0
100
AcDbCircle
10
-118.05
20
-112.52000000000001
30
0
40
0.20000000000000004
210
0
220
0
230
1
0
CIRCLE
5
111
100
AcDbEntity
8
0
100
AcDbCircle
10
-118.84999999999999
20
-112.52000000000001
30
0
40
0.20000000000000004
210
0
220
0
230
1
0
CIRCLE
5
112
100
AcDbEntity
8
0
100
AcDbCircle
10
-119.65000000000002
20
-112.52000000000001
30
0
40
0.20000000000000004
210
0
220
0
230
1
0
CIRCLE
5
113
100
AcDbEntity
8
0
100
AcDbCircle
10
-123.52000000000001
20
-118.40000000000002
30
0
40
0.67000000000000004
210
0
220
0
230
1
0
CIRCLE
5
114
100
AcDbEntity
8
0
100
AcDbCircle
10
-120.85000000000001
20
-113.23
30
0
40
0.20000000000000004
210
0
220
0
230
1
0
CIRCLE
5
115
100
AcDbEntity
8
0
100
AcDbCircle
10
-121.65000000000001
20
-113.23
30
0
40
0.20000000000000004
210
0
220
0
230
1
0
CIRCLE
5
116
100
AcDbEntity
8
0
100
AcDbCircle
10
-123.52000000000001
20
-113.67000000000002
30
0
40
0.67000000000000004
210
0
220
0
230
1
0
CIRCLE
5
117
100
AcDbEntity
8
0
100
AcDbCircle
10
-120.45000000000002
20
-112.52000000000001
30
0
40
0.20000000000000004
210
0
220
0
230
1
0
CIRCLE
5
118
100
AcDbEntity
8
0
100
AcDbCircle
10
-121.25
20
-112.52000000000001
30
0
40
0.22499999999999998
210
0
220
0
230
1
0
CIRCLE
5
119
100
AcDbEntity
8
0
100
AcDbCircle
10
-122.05
20
-112.52000000000001
30
0
40
0.20000000000000004
210
0
220
0
230
1
0
CIRCLE
5
120
100
AcDbEntity
8
0
100
AcDbCircle
10
-167.15000000000001
20
-118.50000000000001
30
0
40
1
210
0
220
0
230
1
0
CIRCLE
5
121
100
AcDbEntity
8
0
100
AcDbCircle
10
-105.8
20
-64.900000000000006
30
0
40
1
210
0
220
0
230
1
0
CIRCLE
5
122
100
AcDbEntity
8
0
100
AcDbCircle
10
-135.93450000000001
20
-74.581000000000003
30
0
40
0.14999999999999999
210
0
220
0
230
1
0
CIRCLE
5
123
100
AcDbEntity
8
0
100
AcDbCircle
10
-135.3845
20
-74.031000000000006
30
0
40
0.14999999999999999
210
0
220
0
230
1
0
CIRCLE
5
124
100
AcDbEntity
8
0
100
AcDbCircle
10
-135.93450000000001
20
-73.480999999999995
30
0
40
0.14999999999999999
210
0
220
0
230
1
0
CIRCLE
5
125
100
AcDbEntity
8
0
100
AcDbCircle
10
-135.3845
20
-72.930999999999997
30
0
40
0.14999999999999999
210
0
220
0
230
1
0
CIRCLE
5
126
100
AcDbEntity
8
0
100
AcDbCircle
10
-135.93450000000001
20
-72.381
30
0
40
0.14999999999999999
210
0
220
0
230
1
0
CIRCLE
5
127
100
AcDbEntity
8
0
100
AcDbCircle
10
-137.03450000000001
20
-74.581000000000003
30
0
40
0.14999999999999999
210
0
220
0
230
1
0
CIRCLE
5
128
100
AcDbEntity
8
0
100
AcDbCircle
10
-136.30000000000001
20
-74.299999999999997
30
0
40
0.01
210
0
220
-0
230
1
0
CIRCLE
5
129
100
AcDbEntity
8
0
100
AcDbCircle
10
-136.4845
20
-74.031000000000006
30
0
40
0.14999999999999999
210
0
220
0
230
1
0
CIRCLE
5
130
100
AcDbEntity
8
0
100
AcDbCircle
10
-137.03450000000001
20
-73.480999999999995
30
0
40
0.14999999999999999
210
0
220
0
230
1
0
CIRCLE
5
131
100
AcDbEntity
8
0
100
AcDbCircle
10
-137.58449999999999
20
-74.031000000000006
30
0
40
0.14999999999999999
210
0
220
0
230
1
0
CIRCLE
5
132
100
AcDbEntity
8
0
100
AcDbCircle
10
-136.4845
20
-72.930999999999997
30
0
40
0.14999999999999999
210
0
220
0
230
1
0
CIRCLE
5
133
100
AcDbEntity
8
0
100
AcDbCircle
10
-137.58449999999999
20
-72.930999999999997
30
0
40
0.14999999999999999
210
0
220
0
230
1
0
CIRCLE
5
134
100
AcDbEntity
8
0
100
AcDbCircle
10
-137.03450000000001
20
-72.381
30
0
40
0.14999999999999999
210
0
220
0
230
1
0
CIRCLE
5
135
100
AcDbEntity
8
0
100
AcDbCircle
10
-166.90000000000001
20
-65.299999999999997
30
0
40
1
210
0
220
0
230
1
0
LWPOLYLINE
5
136
100
AcDbEntity
8
0
100
AcDbPolyline
90
32
70
1
43
0.0
10
-103.24650775722904
20
-119.55000070708871
10
-103.24650675727932
20
-103.54999994084331
42
0.41421360199643087
10
-104.30000062752598
20
-102.4965067572294
10
-105.30000099994808
20
-102.49650675727406
42
-0.41421341061847872
10
-108.24650675727429
20
-99.550000100784047
10
-108.24650775727372
20
-88.550000043022422
42
-0.41421309460163397
10
-105.30000190867874
20
-85.60349324271705
10
-104.30000099999616
20
-85.603493242720674
42
0.4142141965910599
10
-103.24650775727905
20
-84.550000707112432
10
-103.24650675727932
20
-62.549999978488479
42
0.41420819992167562
10
-103.30000096216816
20
-62.496506757278851
10
-106.88576963395482
20
-62.496506757024115
42
0.19892196688889571
10
-106.92361992502083
20
-62.512182617961869
10
-111.04493265347756
20
-66.63349534652194
42
-0.19891197107296935
10
-113.12839525968029
20
-67.49650675726113
10
-159.47158486483448
20
-67.496506757256199
42
-0.19890456563038528
10
-161.55507706127969
20
-66.633485631722252
10
-165.67637467930308
20
-62.512188013663312
42
0.19891998127235111
10
-165.71423705697993
20
-62.496506757102054
10
-169.30000099999825
20
-62.496506757279313
42
0.41420254956429403
10
-169.35349324271257
20
-62.550000908674015
10
-169.3534932427207
20
-84.550000000000267
42
0.41421332553183265
10
-168.30000042596271
20
-85.603493242720504
10
-167.30000099999498
20
-85.603493242715814
42
-0.41421360942235624
10
-164.35349324271573
20
-88.549999899220722
10
-164.35349324271579
20
-99.550000000000423
42
-0.41421365646486502
10
-167.30000137247401
20
-102.4965067572741
10
-168.30000099999518
20
-102.49650675727933
42
0.41421319396775808
10
-169.35349324266105
20
-103.55000010075564
10
-169.3534932427207
20
-119.5500000000003
42
0.41421332552071577
10
-168.30000042596268
20
-120.60349324268051
10
-104.30000099999933
20
-120.60349324272069
42
0.4142141965846397
0
ENDSEC
0
SECTION
2
OBJECTS
0
DICTIONARY
5
C
100
AcDbDictionary
3
ACAD_GROUP
350
D
3
ACAD_MLINESTYLE
350
17
0
DICTIONARY
5
D
100
AcDbDictionary
0
DICTIONARY
5
1A
330
C
100
AcDbDictionary
0
DICTIONARY
5
17
100
AcDbDictionary
0
ENDSEC
0
EOF
